<svg id="Layer_1" data-name="Layer 1" xmlns="http://www.w3.org/2000/svg" viewBox="0 0 662 662"><defs><style>.cls-1{fill:none;}.cls-2{fill:#adadad;}</style></defs><title>fb</title><path class="cls-1" d="M689.81,70c-171.21,0-310,138.79-310,310,0,144.87,99.38,266.52,233.68,300.52V425.75H554.57V340.06h58.92s-15.4-124.53,58.92-150c75.41-25.82,152.64,0,152.64,0l-13.39,77.66s-64.27-13.39-80.34,2.68c-15,15-10.71,69.63-10.71,69.63h77.66v88.37H720.61V688.48C877.36,673,999.81,540.81,999.81,380,999.81,208.79,861,70,689.81,70Z" transform="translate(-358.81 -49)"/><path class="cls-2" d="M689.81,49c-182.8,0-331,148.19-331,331s148.2,331,331,331,331-148.19,331-331S872.62,49,689.81,49Zm30.8,639.48v-260h77.66V340.06H720.61s-4.26-54.66,10.71-69.63c16.07-16.07,80.34-2.68,80.34-2.68l13.39-77.66s-77.23-25.82-152.64,0c-74.32,25.44-58.92,150-58.92,150H554.57v85.69h58.92V680.52c-134.3-34-233.68-155.65-233.68-300.52,0-171.21,138.79-310,310-310s310,138.79,310,310C999.81,540.81,877.36,673,720.61,688.48Z" transform="translate(-358.81 -49)"/></svg>