<svg id="Layer_1" data-name="Layer 1" xmlns="http://www.w3.org/2000/svg" viewBox="0 0 662 662"><defs><style>.cls-1{fill:#adadad;}</style></defs><title>instaicon</title><path class="cls-1" d="M841.91,187H518.09A34.19,34.19,0,0,0,484,221.09V538.91A34.19,34.19,0,0,0,518.09,573H841.91A34.19,34.19,0,0,0,876,538.91V221.09A34.19,34.19,0,0,0,841.91,187Zm-65.69,48h31.56A18.22,18.22,0,0,1,826,253.22v31.56A18.22,18.22,0,0,1,807.78,303H776.22A18.22,18.22,0,0,1,758,284.78V253.22A18.22,18.22,0,0,1,776.22,235Zm-93.63,71.14a75.28,75.28,0,1,1-75.28,75.28A75.27,75.27,0,0,1,682.59,306.14ZM801.53,543H558.47A27.47,27.47,0,0,1,531,515.53V363h33.55a117.67,117.67,0,0,0-2.33,23.48c0,65.23,52.73,118.1,117.78,118.1s117.78-52.87,117.78-118.1A117.67,117.67,0,0,0,795.45,363H829V515.53A27.47,27.47,0,0,1,801.53,543Z" transform="translate(-348.75 -49)"/><path class="cls-1" d="M679.75,49c-182.81,0-331,148.19-331,331s148.19,331,331,331,331-148.19,331-331S862.56,49,679.75,49Zm0,641c-171.21,0-310-138.79-310-310s138.79-310,310-310,310,138.79,310,310S851,690,679.75,690Z" transform="translate(-348.75 -49)"/></svg>