<svg xmlns="http://www.w3.org/2000/svg" viewBox="0 0 694 604"><defs><style>.cls-1{fill:#1c1c1c;}.cls-2{fill:#020202;}.cls-3{fill:#f7931e;}</style></defs><title>Asset 4</title><g id="Layer_2" data-name="Layer 2"><g id="Layer_1-2" data-name="Layer 1"><path d="M376.61,459.48c9.72-5.71,2.17-1.28,0,0Z"/><path d="M322.82,459.48Z"/><path d="M344.73,327c-8.36,10.76-11.66,23.09-12.89,29.52a7.6,7.6,0,0,0,3.05,7.31c13.28,9.12,13.28-7.88,13.28-7.88,2,13,11,13,16,8a9.51,9.51,0,0,0,2.51-6.69c-.51-18.31-5.92-26.45-11.63-31.34A7.19,7.19,0,0,0,344.73,327Z"/><path class="cls-1" d="M357.3,367.5a7.8,7.8,0,0,1-2.45-.39c-3-1-5.26-3.78-6.49-8-.44,2.54-1.51,5.86-4.1,7.23s-5.69.56-9.65-2.16a8.05,8.05,0,0,1-3.26-7.81c1.23-6.45,4.55-18.89,13-29.74h0a7.71,7.71,0,0,1,11.05-1.15c4.8,4.11,11.25,11.87,11.8,31.7a10,10,0,0,1-2.66,7.06A10.36,10.36,0,0,1,357.3,367.5Zm-8.63-11.68c.85,5.58,3.16,9.25,6.49,10.34,2.81.92,6.13-.08,8.66-2.61a9,9,0,0,0,2.36-6.33c-.54-19.44-6.79-27-11.45-31a6.69,6.69,0,0,0-9.61,1h0c-8.3,10.68-11.57,22.95-12.79,29.3a7.13,7.13,0,0,0,2.84,6.8c3.63,2.5,6.53,3.21,8.62,2.11,3.84-2,3.88-9.49,3.88-9.57Z"/><path d="M438,256.13c-21.17-13.47-38-20-69,1-14.65,9.93-6.4,9.42-5.33,8.77C406,240.13,449,263.13,438,256.13Z"/><path d="M258.14,256.13c21.17-13.47,38-20,69,1,14.64,9.93,6.39,9.42,5.33,8.77C290.14,240.13,247.14,263.13,258.14,256.13Z"/><path class="cls-2" d="M264.78,301.91c-3.83,29.64,22.69,29.84,49.42,29.81,28.39,0,22.59-29.63,18.72-44-6.43-23.94-41.21-18.81-55.8-17.63C263,271.21,266.65,287.47,264.78,301.91Z"/><path class="cls-2" d="M431,302.51c3.83,29.59-22.65,29.79-49.33,29.75-28.33,0-22.54-29.57-18.68-43.94,6.42-23.89,41.14-18.77,55.69-17.59C432.77,271.87,429.17,288.09,431,302.51Z"/><path d="M357.28,177.57C323.81,159.62,262,165.84,262,165.84,279.17,82,377.77,93.69,392.18,93.69l-37.67,7c43.76-13.49,77.55,14.08,77.55,14.08l-39.88,2.34c22.15-14.07,56.5,10.56,56.5,10.56H424.3c36.56,0,39.89,31.67,39.89,31.67l-16.62-15.25c23.68,17.82,26.59,41.48,25.11,76.35-1.84,43.3-5.17,23.36-20.12-.69L457,241.13c-18.83-16.42-35.47-31.89-35.47-31.89L431,227.42S376.78,188,357.28,177.57Z"/><path d="M273.85,393.48l-5.18-25.08-2.55,23.72A57.86,57.86,0,0,0,273.85,393.48Z"/><path d="M433.36,391.75l-2.69-25.35-5.38,26.87A58.78,58.78,0,0,0,433.36,391.75Z"/><path d="M435.35,410.62c-.83.42-1.64.79-2.39,1.12a46.15,46.15,0,0,1-12,3.29l-5.41,16c-.83,4.18-21.86,19.34-39.46,28.74l.54-.32c-.35.21-.73.42-1.12.66-4.74,2.78-10,1.63-10.82.26C356,446.15,355.4,441.3,352,440.58h-4.58c-3.4.72-3.95,5.57-12.66,19.82-.84,1.37-6.08,2.52-10.82-.26l-1.12-.66.54.32c-17.6-9.4-38.63-24.56-39.47-28.74l-5.56-15.92a46.16,46.16,0,0,1-12.95-3.4c-.42-.18-.85-.38-1.3-.59l-4.32,40.25s-3,16,27,45c0,0,26.36,21.42,62.95,20.37,36.6,1.05,63-20.37,63-20.37,30-29,27-45,27-45Z"/><path d="M349.17,383.9s9.07,21.43,53.51,28.63c8.49,1.37,19,1.87,29.49-2.63,9.26-4,28-17,28-29,0,0-41,33-74.55.5-17.46-16.91-32.21-21.12-36-10.22-.35,1-.63,1-1,0-3.75-10.9-18.5-6.69-36,10.22-33.55,32.5-74.55-.5-74.55-.5,0,12,18.74,25,28,29,10.48,4.5,21,4,29.49,2.63,44.45-7.2,53.51-28.63,53.51-28.63"/><path class="cls-2" d="M409.57,376.69A59.62,59.62,0,0,1,411.41,366a26.44,26.44,0,0,1,2-5.15,14.88,14.88,0,0,1,3.44-4.48,11.5,11.5,0,0,1,5.21-2.5,23.94,23.94,0,0,1,5.64-.32,47.44,47.44,0,0,0,5.29.1,7.76,7.76,0,0,0,2.29-.46c.77-.31,1.59-.69,2.37-1.07a59.56,59.56,0,0,0,9-5.54A34.48,34.48,0,0,0,454,339.4a11.35,11.35,0,0,0,2-4.13,6.8,6.8,0,0,0,.07-2.15l-.09-1.27,0-.63-.1-.61a21.31,21.31,0,0,0-.48-2.43L455,327c-.12-.39-.28-.77-.41-1.15-.25-.77-.66-1.5-1-2.25s-.79-1.49-1.25-2.26a21.92,21.92,0,0,1-2.56-5.51,11.63,11.63,0,0,1,.37-6.77l.24-.78.31-.7.62-1.4c.44-.9.95-1.72,1.43-2.58.89-1.49,1.66-3,2.44-4.56a111.43,111.43,0,0,0,7.16-19.83,113.26,113.26,0,0,0,3.16-41.7,105.08,105.08,0,0,0-13.07-39.34,127.86,127.86,0,0,0-12-17.12c-1.11-1.35-2.32-2.62-3.47-3.94l-1.75-2c-.58-.65-1.23-1.24-1.84-1.87l-3.72-3.72c-1.25-1.21-2.56-2.31-3.83-3.48l-1.93-1.73-.47-.43a4.67,4.67,0,0,0-.42-.35l-.91-.63c-1.4-.94-2.88-1.86-4.35-2.76s-3-1.78-4.54-2.59l-2.3-1.24-2.34-1.17a137.58,137.58,0,0,0-19.43-7.81c-1.67-.49-3.33-1.06-5-1.49l-5.07-1.27c-1.7-.42-3.42-.69-5.12-1l-2.56-.49-2.59-.35c-1.72-.21-3.44-.48-5.17-.66l-5.19-.35c-.87,0-1.73-.16-2.6-.14h-8l-5.37,0h-2.6c-.87,0-1.73.09-2.6.13l-5.19.33c-1.72.18-3.44.44-5.16.65a120.69,120.69,0,0,0-20.34,4.62,134.6,134.6,0,0,0-19.4,7.85l-2.34,1.17-2.3,1.25c-1.54.81-3,1.72-4.52,2.6s-2.94,1.83-4.33,2.78l-.92.64a3.7,3.7,0,0,0-.41.35l-.48.44L270,166.08c-1.27,1.16-2.58,2.27-3.84,3.48l-3.72,3.72c-.61.63-1.26,1.22-1.84,1.87l-1.75,2c-1.15,1.31-2.36,2.59-3.47,3.93a128.6,128.6,0,0,0-12,17.13,107.77,107.77,0,0,0-8.48,19,100.67,100.67,0,0,0-4.58,20.32,113.19,113.19,0,0,0,3.16,41.69A111.14,111.14,0,0,0,240.64,299c.77,1.59,1.54,3.07,2.44,4.56.47.87,1,1.68,1.42,2.59l.63,1.39.31.71.24.77a11.67,11.67,0,0,1,.37,6.78,22.28,22.28,0,0,1-2.56,5.51c-.46.78-.85,1.52-1.25,2.26a21.5,21.5,0,0,0-1,2.26c-.14.38-.29.76-.42,1.14l-.31,1.19a18,18,0,0,0-.48,2.43l-.11.61,0,.63-.09,1.27a6.51,6.51,0,0,0,.08,2.15,11.12,11.12,0,0,0,2,4.12,34.51,34.51,0,0,0,7.36,7.15,59.87,59.87,0,0,0,9,5.54c.78.38,1.6.76,2.37,1.06a7.69,7.69,0,0,0,2.28.47,50,50,0,0,0,5.29-.1,23.5,23.5,0,0,1,5.65.32,11.64,11.64,0,0,1,5.21,2.49,15,15,0,0,1,3.44,4.49,26.4,26.4,0,0,1,2,5.15,58.75,58.75,0,0,1,1.84,10.73,58.52,58.52,0,0,0-2.56-10.5,24.89,24.89,0,0,0-2.24-4.82,13.44,13.44,0,0,0-3.39-3.86,10,10,0,0,0-4.59-1.88,21.91,21.91,0,0,0-5.18,0,48.55,48.55,0,0,1-5.55.41,9.94,9.94,0,0,1-3-.46c-.94-.3-1.78-.64-2.65-1a57.49,57.49,0,0,1-9.77-5.33,37.66,37.66,0,0,1-8.51-7.55,17.31,17.31,0,0,1-1.69-2.52,12.09,12.09,0,0,1-1.21-3,10.63,10.63,0,0,1-.32-3.23l0-1.45,0-.73.09-.72a23.9,23.9,0,0,1,.43-2.92l.31-1.45c.13-.48.3-1,.44-1.43.28-1,.7-1.85,1.06-2.77s.83-1.75,1.26-2.55a18.8,18.8,0,0,0,1.87-4.35,6.36,6.36,0,0,0-.43-3.88l-.17-.51-.26-.53-.52-1.06c-.38-.71-.86-1.41-1.28-2.12-1-1.58-2-3.27-2.87-4.91a119.58,119.58,0,0,1-13-64.93,108.08,108.08,0,0,1,4.36-22.07,113,113,0,0,1,8.82-20.73,135.72,135.72,0,0,1,12.57-18.63c1.16-1.46,2.42-2.84,3.63-4.26l1.84-2.12c.61-.71,1.29-1.35,1.93-2l3.89-4c1.33-1.32,2.76-2.58,4.14-3.88l2.08-1.92.53-.49A4.66,4.66,0,0,1,267,156l.69-.51.6-.43C269.83,154,271.43,153,273,152s3.22-1.95,4.87-2.83l2.46-1.36,2.51-1.27A144.41,144.41,0,0,1,303.63,138a130.78,130.78,0,0,1,21.91-5.1c1.87-.24,3.73-.52,5.6-.73l5.64-.39c.94-.05,1.88-.17,2.82-.16h8.31l5.45,0h2.83c.94,0,1.88.12,2.82.17l5.63.41c1.87.21,3.73.5,5.6.75l2.79.39,2.76.54c1.84.39,3.7.69,5.52,1.15l5.45,1.4c1.81.48,3.58,1.09,5.38,1.63a147.46,147.46,0,0,1,20.76,8.48l2.51,1.27,2.47,1.35c1.65.88,3.25,1.86,4.88,2.81s3.19,2,4.77,3.11l.6.43.71.51a5.48,5.48,0,0,1,.61.53l.53.48,2.09,1.93c1.37,1.29,2.81,2.56,4.14,3.88l3.89,4c.64.67,1.31,1.32,1.93,2l1.83,2.12c1.21,1.43,2.47,2.8,3.64,4.27a137.45,137.45,0,0,1,12.57,18.62,113,113,0,0,1,8.81,20.73,108.18,108.18,0,0,1,4.36,22.08,119.65,119.65,0,0,1-13,64.92c-.87,1.63-1.83,3.33-2.86,4.9-.42.71-.9,1.41-1.28,2.12l-.52,1.06-.27.53-.17.52a6.44,6.44,0,0,0-.43,3.88,19.29,19.29,0,0,0,1.87,4.36c.43.8.85,1.68,1.26,2.55a26.37,26.37,0,0,1,1.06,2.77c.15.47.31.94.44,1.42l.32,1.45a24.48,24.48,0,0,1,.43,2.92l.08.73,0,.72,0,1.45a10.61,10.61,0,0,1-.31,3.23,12.27,12.27,0,0,1-1.22,3,16.39,16.39,0,0,1-1.68,2.51,37.71,37.71,0,0,1-8.51,7.56,57.76,57.76,0,0,1-9.77,5.32c-.87.36-1.71.7-2.65,1a10.25,10.25,0,0,1-3,.46,50.49,50.49,0,0,1-5.54-.42,21.9,21.9,0,0,0-5.18,0,10,10,0,0,0-4.6,1.87,13.77,13.77,0,0,0-3.39,3.87,25.5,25.5,0,0,0-2.24,4.82A58.52,58.52,0,0,0,409.57,376.69Z"/><path class="cls-3" d="M308.65,39.66a14,14,0,0,0-4.1-4.64,13,13,0,0,0-5.66-2.25,18.16,18.16,0,0,0-6.36.16A16.72,16.72,0,0,0,284.17,37a14.89,14.89,0,0,0-4.38,7.49,20.7,20.7,0,0,0-.17,9.11A18.17,18.17,0,0,0,283,61.27a12.57,12.57,0,0,0,6.73,4.49,18.57,18.57,0,0,0,14.67-2.09,14.11,14.11,0,0,0,4.53-4.5,15.63,15.63,0,0,0,2.19-6.27,21.79,21.79,0,0,0-.25-7.06A20.91,20.91,0,0,0,308.65,39.66Z"/><polygon class="cls-3" points="492.87 89.4 503.51 97.03 508.36 81.03 502.76 84.1 492.87 89.4"/><path class="cls-3" d="M347,0C189.26,0,60.07,122.14,48.81,277H132.1c11-109,103-194,214.9-194s203.87,85,214.89,194.13h83.3C633.93,122.14,504.73,0,347,0ZM119.89,232.57l-3.38,10.72-2,6.46-12.17-4.92L88.1,239.55l-13-4.61-4.42-1.41q2.63-8,5.41-16.75l2-6.26,3-9.43,6.91,2.64-1.15,3c-.32.83-.72,2-1.22,3.48s-1,3-1.5,4.59q-1.62,5.07-2.07,6.56c-.31,1-.75,2.5-1.32,4.52l11.39,4.21q1.53-4.42,3-9,1-3.12,3.17-10.62c1.92.81,4.24,1.71,7,2.72q-2.86,8.67-3.27,9.93-1.23,3.86-2.86,9.64l12,4.41,1.18-3.57q.5-1.56,2.22-7.19l2.12-7.11,1.28-4.79q3.68,1.53,7,2.73Q122.06,225.77,119.89,232.57Zm11.82-30.31c-.3.57-1.1,2.08-2.38,4.55l-6.83-4.41-15.36-9.31-11.25-6.58-3.14-1.74-3.53-1.88q2.15-3.81,3.45-6.21c.7-1.28,1.63-3.08,2.81-5.4s2.14-4.14,2.87-5.48a25.24,25.24,0,0,1,3.91-5.77,11.05,11.05,0,0,1,4-2.51A10.45,10.45,0,0,1,111,157a14.14,14.14,0,0,1,5.27,1.69,15,15,0,0,1,6,5.76,13.6,13.6,0,0,1,1.82,7.93,20.52,20.52,0,0,1-2.56,8.45,27.22,27.22,0,0,1-2.79,4.12c-2.32-.69-4.54-1.24-6.67-1.67a20.5,20.5,0,0,0,2.39-3.48,12.8,12.8,0,0,0,1.59-4.72,6.84,6.84,0,0,0-.87-4.23,7.9,7.9,0,0,0-3.24-3.16,6.54,6.54,0,0,0-2.56-.81,4.57,4.57,0,0,0-2.39.39,5.6,5.6,0,0,0-1.88,1.43,17.29,17.29,0,0,0-1.83,2.82c-.6,1.12-1.2,2.26-1.77,3.42s-1.11,2.18-1.59,3.06q5.7,3.56,11,6.66l11.29,6.58q6,3.5,8.85,5l3.14,1.67Zm23.4-38.17c-.5.68-1.67,2.28-3.49,4.82q-9-7.66-18.57-15.45T118.2,141.79l-3-2.15,3.47-4.55c.19-.25,1.21-1.67,3.06-4.24q13.61,11.84,36.39,29.25Zm31.8-34.53c-1.41,1.65-2.66,3-3.76,4.12a32.92,32.92,0,0,1-8,5.88,24.2,24.2,0,0,1-9.16,2.71,17.75,17.75,0,0,1-9.13-1.5A28.44,28.44,0,0,1,143,126.25a21.92,21.92,0,0,1-1.63-9.86,24.65,24.65,0,0,1,2.86-9.8,35.75,35.75,0,0,1,6.5-8.74,64.59,64.59,0,0,1,9.47-7.63q2.22,2.09,3.18,2.91l2.75,2.43a59.3,59.3,0,0,0-5.55,3.53,34.27,34.27,0,0,0-3.73,3.18,22.24,22.24,0,0,0-4.2,5.74,15.77,15.77,0,0,0-1.72,6.7,16.4,16.4,0,0,0,1.31,7,19,19,0,0,0,4.07,6.06,18,18,0,0,0,6.82,4.44,13.3,13.3,0,0,0,7.92.19,18.37,18.37,0,0,0,8.17-5,46.2,46.2,0,0,0,7.31-10.15c1.52,2.24,3.13,4.47,4.81,6.68C189.78,126,188.32,127.9,186.91,129.56Zm72.78-46.51q-1.6.8-4.2,2.16c-.91-2.14-1.68-3.9-2.31-5.26l-8.52-18.48c-1.21-2.6-2.44-5.15-3.67-7.64l-1.26-2.46,3.52,35.37.49,4.3c-2,.94-3.38,1.6-4.12,2q-1.38.69-4.31,2.21L220.69,79c-.52-.58-1.64-1.77-3.38-3.58l-5-5.31c-.48-.5-.85-.91-1.13-1.25s-.9-1.07-1.85-2.23l1.54,4.12c.52,1.3,1.4,3.45,2.64,6.47l8.22,19.58c.42,1,1.08,2.37,2,4.21l-4,1.9c-.67.33-2,1-4,2l-2.63-7.32-10-25.32-4.53-10.91q4.39-2.1,6.42-3.11,1.62-.8,5.87-3c1.15,1.49,2,2.55,2.48,3.16s1.38,1.57,2.61,2.87,2.76,2.85,4.58,4.67q4.08,4.16,7.77,8.35l6.68,7.6-1.48-13.26L232.2,51.09c0-.59-.12-1.26-.22-2s-.31-2.07-.62-4c2.45-1.16,4.62-2.22,6.52-3.16q1.91-.94,6-3.07,3.95,9,9,19.81t7.69,16.05q1.26,2.53,3.22,6.33Q260.79,82.52,259.69,83.05Zm61.62-29.4a21.27,21.27,0,0,1-3.69,9.17,22.82,22.82,0,0,1-7.74,6.78,37,37,0,0,1-21.09,4.32,22.83,22.83,0,0,1-9.46-3,19,19,0,0,1-6.57-6.38,26.56,26.56,0,0,1-3.34-8.73,28.11,28.11,0,0,1-.09-10.58A20.52,20.52,0,0,1,273.4,36a26.22,26.22,0,0,1,7.8-6.56,34.83,34.83,0,0,1,10.45-3.78,33.89,33.89,0,0,1,9.86-.52,22.06,22.06,0,0,1,9,2.86,20.69,20.69,0,0,1,6.8,6.16,24.33,24.33,0,0,1,3.72,9.26A29.5,29.5,0,0,1,321.31,53.65Zm59.26-14.56-1.28,13A34.82,34.82,0,0,1,378,58.92a13.91,13.91,0,0,1-1.69,3.41,12,12,0,0,1-2.41,2.46,16.69,16.69,0,0,1-4.11,2.34,23,23,0,0,1-5.51,1.5,43.52,43.52,0,0,1-8.19.38,39.83,39.83,0,0,1-8-1.15,22.53,22.53,0,0,1-5.8-2.39,15.19,15.19,0,0,1-4.1-3.4,10.61,10.61,0,0,1-1.85-3.68,15.65,15.65,0,0,1-.61-5.36c0-.69.09-1.57.18-2.65s.24-2.47.44-4.17l.53-4.8q.27-2.25.68-6.61l.68-7.39c.18-2,.37-4.26.55-6.72,2.63.17,4.42.27,5.35.32,1.16,0,2.88.11,5.18.16l-2.86,27.49q-.06.47-.09,1a14.51,14.51,0,0,0,1,7,7.78,7.78,0,0,0,3.71,3.56,15.11,15.11,0,0,0,5.77,1.32,16.32,16.32,0,0,0,4-.3,11.42,11.42,0,0,0,2.85-1,8.91,8.91,0,0,0,1.88-1.35,9,9,0,0,0,1.64-2.22,10.48,10.48,0,0,0,1.08-2.82,81.18,81.18,0,0,0,1.21-8.4l1.27-11.85q.48-5.17.9-11.42c2.56.17,4.47.27,5.72.33l5,.16Zm45.25,2.12a27.43,27.43,0,0,0-9-4.35,9.26,9.26,0,0,0-5.68.16A4.33,4.33,0,0,0,408.18,40a4.57,4.57,0,0,0-.13,1.14,5.26,5.26,0,0,0,.15,1.24,9.75,9.75,0,0,0,.68,1.68,17.52,17.52,0,0,0,1.66,2.59c.75,1,1.41,1.86,2,2.51l3.17,4.73q1.24,1.68,2.16,3.21a24.65,24.65,0,0,1,1.52,2.87,13.2,13.2,0,0,1,.85,2.5,10.52,10.52,0,0,1,.22,2.29,10.75,10.75,0,0,1-.31,2.34,11.61,11.61,0,0,1-2.6,4.94,11.13,11.13,0,0,1-4.72,3.14,15.83,15.83,0,0,1-5.85.9,30.49,30.49,0,0,1-6.26-.9,42,42,0,0,1-4.85-1.58c-1.82-.71-4.19-1.79-7.09-3.24q1-5.1,1.34-8.4a29.84,29.84,0,0,0,11.08,5.88,12.15,12.15,0,0,0,4.12.33A5.81,5.81,0,0,0,408.46,67,4.44,4.44,0,0,0,410,64.55a4.84,4.84,0,0,0,.07-2.13,9.51,9.51,0,0,0-1.48-3.08q-1.44-2.3-5.28-7.68-1.83-2.59-2.49-3.68a24.39,24.39,0,0,1-2.22-4.15,11,11,0,0,1,2.73-12.11,11.75,11.75,0,0,1,6.27-3,22.14,22.14,0,0,1,9.12.62,57.11,57.11,0,0,1,10.4,3.8C426.65,35.48,426.22,38.16,425.82,41.21ZM449.69,81.5,448,85.16q-1,2.27-2.12,4.73l-4.74-2.16L436,85.54l4.71-8.83,6.69-13.3,6.34-13.19-2.19-1-2-.86-1.95-.82-7.31-3c1.49-2.93,2.59-5.18,3.3-6.73q9,4,18.82,8.38l11.24,4.91,6,2.62q-2.28,4.31-3.34,6.71-5.54-2.78-10.73-5.07l-2.4-1.06-2.89,5.55Zm56.08,41.66-1,3.91-4.13-3q-1.44-1-4.89-3.42c.73-2,1.63-4.69,2.67-8.18s1.87-6.33,2.45-8.55L486.26,93.41q-8,4.28-16,8.93L465.78,99q-1.27-.92-4.85-3.39,6.56-3,15.84-7.78l17.37-8.79q8.07-4,13.73-7.19,3.57,2.64,5.07,3.72,2.64,1.89,5.21,3.65L514,93.47Zm23.62,31.91q-2.39-2.23-3.93-4a33,33,0,0,1-5.49-8.23,24.13,24.13,0,0,1-2.27-9.28,17.78,17.78,0,0,1,1.95-9,28.41,28.41,0,0,1,15.18-13.22,21.94,21.94,0,0,1,9.92-1.15,24.68,24.68,0,0,1,9.65,3.34,35.68,35.68,0,0,1,8.42,6.91,64.24,64.24,0,0,1,7.16,9.83q-2.19,2.12-3.06,3l-2.56,2.62a60.59,60.59,0,0,0-3.26-5.71,34.42,34.42,0,0,0-3-3.88,22.45,22.45,0,0,0-5.53-4.47,15.81,15.81,0,0,0-6.61-2,16.17,16.17,0,0,0-7,1,19.11,19.11,0,0,0-6.25,3.76,18.06,18.06,0,0,0-4.77,6.61,13.19,13.19,0,0,0-.56,7.89,18.33,18.33,0,0,0,4.63,8.41,45.87,45.87,0,0,0,9.79,7.79c-2.32,1.41-4.62,2.91-6.92,4.48C532.81,158.11,531,156.55,529.39,155.07ZM560.94,203q-.5-.86-2.86-4.91,8.86-4,18.27-9l-11.48-20.32-11.18,5.76-6.83,3.7-2.7-4.92c-.3-.54-1.18-2-2.63-4.52l11.07-5.34q9.07-4.38,16.7-8.36t10.57-5.65l3.25-1.88c1.28,2.36,2.2,4,2.74,5,.42.74,1.28,2.22,2.6,4.45l-13.87,6.8-3.15,1.66,11.45,20.26,8.25-4.18q4.22-2.22,5.53-3l3-1.7,2.75,5,2.58,4.43-16.77,8.18L576,200.82l-7.12,3.87-5.36,2.95Zm54.19,35.48c-.22-.86-.55-2.05-1-3.56s-.9-3-1.38-4.61q-1.57-5.1-2-6.58c-.32-1-.82-2.47-1.5-4.46l-11.76,3q1.27,4.52,2.68,9.06,1,3.13,3.45,10.53-3.06.65-7.27,1.73-2.58-8.76-3-10-1.19-3.86-3.15-9.54l-12.38,3.22,1.07,3.61q.48,1.56,2.28,7.17l2.31,7.05,1.68,4.67c-2.59.55-5,1.13-7.29,1.74q-2.55-8.52-4.65-15.35l-3.33-10.73-2-6.46,12.81-2.9,14.68-3.77,13.3-3.62,4.44-1.36q2.42,8.08,5.11,16.84l2,6.27,2.93,9.43-7.17,1.78Z"/><path class="cls-3" d="M377.32,565.23a59.83,59.83,0,0,0-4.57,4,14.18,14.18,0,0,0-2.52,3.31,9.29,9.29,0,0,0-1.12,3.13,10.24,10.24,0,0,0,0,2.82,8.65,8.65,0,0,0,2.36,4.86,10.31,10.31,0,0,0,5.1,2.84,18,18,0,0,0,6.95.25,20.69,20.69,0,0,0,4.22-1.05,16.46,16.46,0,0,0,3.44-1.68,11.3,11.3,0,0,0,2.22-1.87,26.58,26.58,0,0,0,1.81-2.39q-5.49-3.91-9.54-7.14T377.32,565.23Z"/><polygon class="cls-3" points="114.01 421.15 121.25 434.7 134.21 420.58 114.01 421.15"/><path class="cls-3" d="M561.91,329C550,437,458.43,521,347.25,521S144.52,437,132.58,329H49.21c12.22,153.91,141,275,298,275s285.81-121.09,298-275Zm-483,71.72q-.14-.48-1.05-3.36,10.49-2.13,21.05-5L91.1,365.72l-13.59,3.47-7.32,2-.9-3.34c-.09-.3-.42-1.35-1-3.13L88.4,360l15.25-3.87,5.21-1.42q1.13-.28,4.74-1.34l.94,3.36.94,3.11-19.93,4.78,7.77,26.64,15.76-4c.55-.14,1.91-.52,4.08-1.15l.94,3.36.94,3.11q-13.25,2.92-23.7,5.58T79.75,404Zm26.66,55.54c-.29-.54-.89-1.6-1.79-3.19q2.46-2.35,7-7.17t7.19-7.93l-8.8-16.47L97.74,422l-10.32.55-1.59-3.12q-.4-.76-1.8-3.21l13.3-.05,34.82-.62,4.31-.21,1.84,3.52c.58,1.08,1.22,2.25,1.91,3.51l-12,13.1L107,459.16Zm11.68,16.1c-.24-.34-1-1.3-2.19-2.89l6.65-4.23,13.64-9.07L148.62,447c.77-.54,1.53-1.08,2.28-1.63l2.8-2.08,2.05,2.86,2,2.66q-7.26,4.54-14.95,9.78Q130.44,467,119.05,475Zm47.7,18.85a15.83,15.83,0,0,1-3.71-1.91q-1.32-.92-3.41-2.7l-2.9,11-2.71,11.06c-.18.76-.48,1.9-.88,3.4-1.18-1.32-2-2.2-2.37-2.63s-1.28-1.33-2.54-2.61l1.73-5c.32-1,.64-2,.94-2.94s.63-2,1-3.17l3.91-14.27c.15-.58.43-1.56.84-2.95a26.39,26.39,0,0,0,2.83,3.72,16.42,16.42,0,0,0,5.07,3.75,9,9,0,0,0,5.5.75,9.57,9.57,0,0,0,4.89-2.5,8.67,8.67,0,0,0,1.81-2.35,5.53,5.53,0,0,0,.62-2.66,7.41,7.41,0,0,0-.43-2.41,10.88,10.88,0,0,0-1.33-2.32,27.28,27.28,0,0,0-2.15-2.59l-3.37-3.5c-1.44-1.53-2.34-2.51-2.71-2.94q-17.49,14.94-31.71,28l-2.25-2.5c-.34-.36-1.11-1.16-2.31-2.37l7.17-5.79,12.93-11.05L160,462.12c2.14-1.94,3.66-3.34,4.56-4.18q2.76,3,4.6,5,1.59,1.69,3.57,3.71T176,470a34.94,34.94,0,0,1,3.64,4.54,10.45,10.45,0,0,1,1.71,4.8,9.91,9.91,0,0,1-.61,4.75,11.24,11.24,0,0,1-2.81,4,14.46,14.46,0,0,1-4,2.69,12.66,12.66,0,0,1-4.44,1.06A12.33,12.33,0,0,1,164.91,491.21Zm36.53,8.17a17.42,17.42,0,0,0-7.66-.78,17.92,17.92,0,0,0-7.55,2.72A23.24,23.24,0,0,0,180,507a23.63,23.63,0,0,0-3.59,6.79,15.33,15.33,0,0,0-.67,7.09,16.93,16.93,0,0,0,2.49,6.62,21.67,21.67,0,0,0,5.41,5.72,43.9,43.9,0,0,0,11.29,5.8q-1.87,1.68-3.91,3.77a62.35,62.35,0,0,1-10.68-6.32,30.91,30.91,0,0,1-6.79-7,21.73,21.73,0,0,1-3.64-8.62,19,19,0,0,1,.5-9,26.7,26.7,0,0,1,4.29-8.32,30,30,0,0,1,7.5-7.07,21.3,21.3,0,0,1,9.2-3.45,22.68,22.68,0,0,1,9.89,1.07,32.58,32.58,0,0,1,9.39,4.95,56.42,56.42,0,0,1,8.63,8q-1,1.4-2.88,4.46a46.31,46.31,0,0,0-4.23-5.13,34.76,34.76,0,0,0-3.81-3.35A24.41,24.41,0,0,0,201.44,499.38Zm54.09,43.44-6.35,11.74a40.5,40.5,0,0,1-4,6.06,13.48,13.48,0,0,1-2.84,2.43,11.34,11.34,0,0,1-3.08,1.36,16.32,16.32,0,0,1-4.41.56,21.65,21.65,0,0,1-5.15-.66,40.88,40.88,0,0,1-7.27-2.71,32.11,32.11,0,0,1-6.21-3.87,19.93,19.93,0,0,1-4-4.22,14,14,0,0,1-2.15-4.57,10.29,10.29,0,0,1-.18-4.11,17,17,0,0,1,1.62-5.25q1.38-2.87,3.39-6.45t6-10.86q3.94-7.29,5.85-11.22l3,1.5,3,1.41L220,536.78l-1.47,2.82-.29.58a16,16,0,0,0-1.94,7.25A9.42,9.42,0,0,0,218.6,553a18.28,18.28,0,0,0,6.35,4.66,19.73,19.73,0,0,0,5.59,1.79,12.36,12.36,0,0,0,4.23-.09,10.13,10.13,0,0,0,3.61-1.52,12.38,12.38,0,0,0,2.88-2.82,89,89,0,0,0,4.8-8l5.34-9.64q2.88-5.37,6-11.54l3.16,1.56,2.88,1.36Zm31.28-3-4.69,14.4L275.8,574.6l-1.51,5.5-3.15-.94-3.38-.85,3.42-9.91,6.62-20.66,2.94-9.57q-8.08-2.19-14.21-3.58.92-2.58,1.5-4.59,8.36,2.34,18.05,5l10.56,2.85,5.6,1.54c-.69,1.91-1.19,3.43-1.5,4.58q-5-1.69-11.23-3.39Zm42.88,8.36a28.68,28.68,0,0,0-9.21-3,11.1,11.1,0,0,0-5,.37,7.5,7.5,0,0,0-3.29,2.11,5.5,5.5,0,0,0-1.39,3,6.65,6.65,0,0,0,.05,1.89,6.78,6.78,0,0,0,.61,1.81,17.59,17.59,0,0,0,1.65,2.62,43.34,43.34,0,0,0,2.84,3.32l3.5,3.66c2,2.12,3.49,3.76,4.4,4.9A20.38,20.38,0,0,1,326,572a11,11,0,0,1,1.09,3,10,10,0,0,1,.11,3.34,10.8,10.8,0,0,1-1.77,4.87,9.86,9.86,0,0,1-3.81,3.34,14.67,14.67,0,0,1-5.12,1.49,25.67,25.67,0,0,1-5.67-.06A34.29,34.29,0,0,1,306,587a64,64,0,0,1-6.92-2.47c.17-2.16.25-4,.23-5.65a34.33,34.33,0,0,0,6.18,3.17,24.26,24.26,0,0,0,5.43,1.36,13,13,0,0,0,4.84-.3,7,7,0,0,0,3.58-2,6.1,6.1,0,0,0,1.54-3.48,6.59,6.59,0,0,0-.1-2.27,7.93,7.93,0,0,0-1-2.25,25.45,25.45,0,0,0-2.53-3.23q-1.85-2.05-5.22-5.7l-2.26-2.44c-.85-.93-1.61-1.84-2.29-2.74a20.06,20.06,0,0,1-1.65-2.54,13.65,13.65,0,0,1-1-2.14,9.44,9.44,0,0,1-.42-2.09,10.25,10.25,0,0,1,0-2.28,10.11,10.11,0,0,1,2.25-5.27,11.14,11.14,0,0,1,5.29-3.5,20,20,0,0,1,8.65-.51,52.42,52.42,0,0,1,9.14,2.13C329.73,544.23,329.67,546,329.69,548.19Zm79.89,38.56c-1.16.17-2.47.38-3.93.64l-6.36-4.46c-.79.9-1.48,1.65-2.06,2.23a23,23,0,0,1-2.24,1.9,18.44,18.44,0,0,1-3.05,1.85,25.46,25.46,0,0,1-3.93,1.51,30.21,30.21,0,0,1-4.63,1,25.45,25.45,0,0,1-10-.39,14.18,14.18,0,0,1-7.29-4.25,13.52,13.52,0,0,1-3.34-7.21,14.57,14.57,0,0,1,0-4.17,13,13,0,0,1,1.55-4.36,20,20,0,0,1,3.4-4.41,61.73,61.73,0,0,1,6.07-5.17A33.28,33.28,0,0,1,369,555.3a14.78,14.78,0,0,1-1.73-4.94,11.14,11.14,0,0,1,.4-4.79,11.84,11.84,0,0,1,2.57-4.53,12.81,12.81,0,0,1,4.46-3.2,21.89,21.89,0,0,1,5.6-1.57,25.67,25.67,0,0,1,4.28-.23,38,38,0,0,1,5.47.58q.56,3.84.87,5.52a19.22,19.22,0,0,0-4.48-1.28,14,14,0,0,0-3.83,0,12.1,12.1,0,0,0-4.88,1.75,7.7,7.7,0,0,0-3,3.49,7.9,7.9,0,0,0-.6,4.31,10.38,10.38,0,0,0,.86,2.88,18,18,0,0,0,2.24,3.43,55,55,0,0,0,6.3,6.52q3.39,3.07,7.42,6.1,1.54,1.2,7.62,5.58a14.71,14.71,0,0,0,.81-4.51,27.67,27.67,0,0,0,0-2.88c0-.95-.1-2-.21-3.14,1.3-.13,2.32-.25,3-.36s1.73-.27,2.94-.5a31.86,31.86,0,0,1,.09,7.92,28.41,28.41,0,0,1-1.89,7.41q2.56,1.92,5.26,3.79c1.79,1.24,3.48,2.44,5.06,3.58C411.9,586.45,410.51,586.62,409.58,586.75Zm58.95-30.57a9.89,9.89,0,0,1-1.61,4.81,14.61,14.61,0,0,1-3.67,3.86,25.46,25.46,0,0,1-4.93,2.81,34.19,34.19,0,0,1-4.61,1.6,63.86,63.86,0,0,1-7.22,1.36c-.94-2-1.83-3.62-2.65-5a34.15,34.15,0,0,0,6.93-.38,23,23,0,0,0,5.38-1.56,13,13,0,0,0,4-2.69,7.07,7.07,0,0,0,2.06-3.58,6.2,6.2,0,0,0-.42-3.78,6.62,6.62,0,0,0-1.24-1.91,8.07,8.07,0,0,0-1.95-1.46,24,24,0,0,0-3.82-1.51q-2.62-.86-7.39-2.3l-3.17-1c-1.21-.37-2.33-.78-3.36-1.21a22,22,0,0,1-2.71-1.36,13.79,13.79,0,0,1-1.91-1.37,9.1,9.1,0,0,1-1.42-1.58,11.07,11.07,0,0,1-1.12-2,10.12,10.12,0,0,1-.71-5.69,11.15,11.15,0,0,1,2.81-5.69,19.91,19.91,0,0,1,7.21-4.8,52.35,52.35,0,0,1,9-2.76q.94,2,2.59,4.76a29,29,0,0,0-9.46,2.08,11.25,11.25,0,0,0-4.13,2.85,7.57,7.57,0,0,0-1.77,3.47,5.46,5.46,0,0,0,.29,3.26,6.7,6.7,0,0,0,1,1.6,6.46,6.46,0,0,0,1.44,1.26,16.46,16.46,0,0,0,2.75,1.44c1,.43,2.41.91,4.12,1.44l4.87,1.39c2.82.81,4.91,1.49,6.27,2a21.4,21.4,0,0,1,3.41,1.64,11.08,11.08,0,0,1,2.44,2,10.6,10.6,0,0,1,1.79,2.82A11,11,0,0,1,468.53,556.18Zm48.79-22.9-2.9,2q-5.14-9.37-11-18.61L480.27,532l7.34,11.94,4.08,6.4-2.92,1.85-2.7,1.88-10.44-17.81-8.23-13.41-2.9-4.55q-.62-1-2.69-4.13l2.93-1.89,2.69-1.83,10.48,17.62L501,512.74l-8.45-13.87c-.3-.49-1.07-1.67-2.32-3.55l2.93-1.9,2.69-1.83q6.74,11.78,12.37,21t11.89,18.91Zm45.18-41.86c-.43.44-1.27,1.32-2.52,2.65q-3-1.67-8.9-4.52t-9.7-4.54l-13.14,13.27L532,509l3.58,9.69-2.52,2.44-2.54,2.66-4-12.69L515.7,478,514.23,474l2.82-2.79c.87-.88,1.8-1.83,2.79-2.87l16.06,7.59,28.94,13.28Zm20.59-28.07c-.52.77-1.24,1.9-2.15,3.36L575,465l-42-10.31c.89-1.29,1.56-2.28,2-3l1.74-2.69,3.66,1.15,2.43.67,36.36,9.47-19.91-34.07c-.46-.76-.92-1.53-1.41-2.3s-1.23-1.93-2.24-3.47c.93-1.35,1.59-2.34,2-2.94l1.84-2.85q3.06,5.9,8.52,15.48l9.6,17q4.14,7.38,7.69,13.09Q583.86,462.18,583.09,463.35Zm25.49-47.13-6.34,15-11.48-5.86L569.06,415l-4.77-2.15c-1.2-.54-2.59-1.15-4.16-1.83q3.07-7.08,6.26-14.52l4.26-10,1.38-3.21q2.09,1.17,4.27,2.17L575,388.15c-.34.67-.88,1.85-1.63,3.53s-1.47,3.34-2.17,5c-2.12,4.95-3.57,8.4-4.34,10.38l14.46,6.87q2.16-4.8,3.81-8.63,1.78-4.19,4.57-11c1.41.77,2.81,1.49,4.22,2.14l-4.73,10.77q-1.36,3.18-3.66,8.88l15.28,7.23,1.43-3.26q3.81-8.89,5-11.83c.79-2,1.67-4.26,2.64-6.92,1.49.81,2.92,1.53,4.31,2.18Q610.81,411,608.58,416.22Zm12.35-33.5a63.78,63.78,0,0,1-3.35,6.53q-3.18-.67-5.57-1a34.64,34.64,0,0,0,4-5.71,23.36,23.36,0,0,0,2-5.21,12.66,12.66,0,0,0,.34-4.83,7.09,7.09,0,0,0-1.56-3.82,6.21,6.21,0,0,0-3.25-2,6.5,6.5,0,0,0-2.26-.19,7.63,7.63,0,0,0-2.36.65,24.25,24.25,0,0,0-3.53,2.09c-1.53,1-3.64,2.51-6.34,4.43l-2.72,1.92c-1,.72-2,1.36-3,1.91a20.85,20.85,0,0,1-2.73,1.31,13.39,13.39,0,0,1-2.26.67,9,9,0,0,1-2.12.15,11,11,0,0,1-2.26-.33,10.19,10.19,0,0,1-4.93-2.93,11.17,11.17,0,0,1-2.77-5.7,20.05,20.05,0,0,1,.62-8.64,53,53,0,0,1,3.31-8.79c1.43.32,3.22.62,5.35.88a28.56,28.56,0,0,0-4.14,8.75,11.24,11.24,0,0,0-.29,5,7.55,7.55,0,0,0,1.66,3.52,5.43,5.43,0,0,0,2.76,1.77,6.33,6.33,0,0,0,3.75-.17,17.33,17.33,0,0,0,2.82-1.29q1.45-.83,3.66-2.38l4.08-3c2.37-1.74,4.19-3,5.44-3.73a21.21,21.21,0,0,1,3.38-1.69,11,11,0,0,1,3.1-.69,10.32,10.32,0,0,1,3.32.32,10.88,10.88,0,0,1,4.59,2.4,9.81,9.81,0,0,1,2.82,4.21,14.52,14.52,0,0,1,.81,5.27,25.16,25.16,0,0,1-.81,5.62A34.48,34.48,0,0,1,620.93,382.72Z"/><polygon class="cls-3" points="526.45 493.67 537.26 482.76 519.95 474.54 526.45 493.67"/><path class="cls-3" d="M539.56,276.92C525,276.92,513,288.64,513,303h0c0,14.32,12,26,26.56,26h47.21L541,276.92Z"/><path class="cls-3" d="M694,303h0c0-14.32-12-26-26.56-26H641.36l24.34,23.87v20.26l-45-44.13H597.1L650.21,329h17.23C682.05,329,694,317.28,694,303Z"/><polygon class="cls-3" points="554.31 276.92 607.42 329 629.55 329 576.44 276.92 554.31 276.92"/><rect x="623.91" y="292.17" width="62.93" height="20.86" rx="5.13" transform="translate(957.97 -352.77) rotate(90)"/><rect x="519.89" y="292.89" width="62.93" height="20.86" rx="5.13" transform="translate(854.68 -248.04) rotate(90)"/><path class="cls-3" d="M26.56,276.92C12,276.92,0,288.64,0,303H0c0,14.32,12,26,26.56,26H73.77L28,276.92Z"/><path class="cls-3" d="M181,303h0c0-14.32-11.95-26-26.56-26H128.36l24.34,23.87v20.26l-45-44.13H84.1L137.21,329h17.23C169.05,329,181,317.28,181,303Z"/><polygon class="cls-3" points="41.31 276.92 94.42 329 116.56 329 63.44 276.92 41.31 276.92"/><rect x="110.91" y="292.17" width="62.93" height="20.86" rx="5.13" transform="translate(444.97 160.23) rotate(90)"/><rect x="6.89" y="292.89" width="62.93" height="20.86" rx="5.13" transform="translate(341.68 264.96) rotate(90)"/></g></g></svg>