<svg id="Layer_1" data-name="Layer 1" xmlns="http://www.w3.org/2000/svg" viewBox="0 0 694 604"><defs><style>.cls-1{fill:#999;}.cls-2{fill:#f7931e;}</style></defs><title>logogrey</title><path d="M711.61,541.35c9.72-5.71,2.17-1.28,0,0Z" transform="translate(-335 -81.87)"/><path d="M657.82,541.35Z" transform="translate(-335 -81.87)"/><path class="cls-1" d="M679.73,408.82c-8.36,10.76-11.66,23.09-12.89,29.52a7.58,7.58,0,0,0,3,7.3c13.28,9.13,13.28-7.87,13.28-7.87,2,13,11,13,16,8a9.51,9.51,0,0,0,2.51-6.69c-.51-18.31-5.92-26.46-11.63-31.34A7.18,7.18,0,0,0,679.73,408.82Z" transform="translate(-335 -81.87)"/><path class="cls-1" d="M692.3,449.36a7.79,7.79,0,0,1-2.45-.38c-3-1-5.26-3.78-6.49-8-.44,2.54-1.51,5.86-4.1,7.23s-5.69.55-9.65-2.17a8,8,0,0,1-3.26-7.81c1.23-6.44,4.55-18.88,13-29.73h0a7.68,7.68,0,0,1,11-1.15c4.8,4.11,11.25,11.86,11.8,31.7a10,10,0,0,1-2.66,7.06A10.39,10.39,0,0,1,692.3,449.36Zm-8.63-11.67c.85,5.58,3.16,9.25,6.49,10.34,2.81.92,6.13-.09,8.66-2.62a9,9,0,0,0,2.36-6.32c-.54-19.44-6.79-27-11.45-31a6.55,6.55,0,0,0-5-1.55,6.63,6.63,0,0,0-4.62,2.55h0c-8.3,10.69-11.57,22.95-12.79,29.31a7.13,7.13,0,0,0,2.84,6.8c3.63,2.49,6.53,3.2,8.62,2.1,3.84-2,3.88-9.49,3.88-9.56Z" transform="translate(-335 -81.87)"/><path class="cls-1" d="M773,338c-21.17-13.47-38-20-69,1-14.65,9.92-6.4,9.42-5.33,8.77C741,322,784,345,773,338Z" transform="translate(-335 -81.87)"/><path class="cls-1" d="M593.14,338c21.17-13.47,38-20,69,1,14.64,9.92,6.39,9.42,5.33,8.77C625.14,322,582.14,345,593.14,338Z" transform="translate(-335 -81.87)"/><path class="cls-1" d="M599.78,383.78c-3.83,29.64,22.69,29.84,49.42,29.8,28.39,0,22.59-29.63,18.72-44-6.43-23.93-41.21-18.8-55.8-17.62C598,353.08,601.65,369.33,599.78,383.78Z" transform="translate(-335 -81.87)"/><path class="cls-1" d="M766,384.38c3.83,29.59-22.65,29.78-49.33,29.75-28.33,0-22.54-29.58-18.68-43.94,6.42-23.89,41.14-18.77,55.69-17.59C767.77,353.74,764.17,370,766,384.38Z" transform="translate(-335 -81.87)"/><path class="cls-1" d="M692.28,259.43C658.81,241.49,597,247.7,597,247.7c17.17-83.87,115.77-72.14,130.18-72.14l-37.67,7c43.76-13.49,77.55,14.07,77.55,14.07L727.18,199c22.15-14.08,56.5,10.56,56.5,10.56H759.3c36.56,0,39.89,31.67,39.89,31.67L782.57,226c23.68,17.82,26.59,41.48,25.11,76.34-1.84,43.31-5.17,23.37-20.12-.68L792,323c-18.83-16.42-35.47-31.9-35.47-31.9L766,309.29S711.78,269.89,692.28,259.43Z" transform="translate(-335 -81.87)"/><path class="cls-1" d="M608.85,475.34l-5.18-25.07L601.12,474A56.25,56.25,0,0,0,608.85,475.34Z" transform="translate(-335 -81.87)"/><path class="cls-1" d="M768.36,473.62l-2.69-25.35-5.38,26.87A58.78,58.78,0,0,0,768.36,473.62Z" transform="translate(-335 -81.87)"/><path class="cls-1" d="M770.35,492.48c-.83.42-1.64.8-2.39,1.12a45.76,45.76,0,0,1-12,3.29l-5.41,16c-.83,4.19-21.86,19.35-39.46,28.75l.54-.32c-.35.2-.73.42-1.12.66-4.74,2.78-10,1.62-10.82.26C691,528,690.4,523.17,687,522.45h-4.58c-3.4.72-3.95,5.56-12.66,19.82-.84,1.36-6.08,2.52-10.82-.26l-1.12-.66.54.32c-17.6-9.4-38.63-24.56-39.47-28.75L613.33,497a45.85,45.85,0,0,1-13-3.41c-.42-.18-.85-.38-1.3-.59l-4.32,40.26s-3,16,27,45c0,0,26.36,21.41,63,20.37,36.6,1,63-20.37,63-20.37,30-29,27-45,27-45Z" transform="translate(-335 -81.87)"/><path class="cls-1" d="M684.17,465.77s9.07,21.43,53.51,28.62c8.49,1.38,19,1.88,29.49-2.62,9.26-4,28-17,28-29,0,0-41,33-74.55.5-17.46-16.92-32.21-21.12-36-10.22-.35,1-.63,1-1,0-3.75-10.9-18.5-6.7-36,10.22-33.55,32.5-74.55-.5-74.55-.5,0,12,18.74,25,28,29,10.48,4.5,21,4,29.49,2.62,44.45-7.19,53.51-28.62,53.51-28.62" transform="translate(-335 -81.87)"/><path class="cls-1" d="M744.57,458.56a59.47,59.47,0,0,1,1.84-10.73,26.2,26.2,0,0,1,2-5.15,15,15,0,0,1,3.44-4.49A11.59,11.59,0,0,1,757,435.7a23.42,23.42,0,0,1,5.64-.32,50,50,0,0,0,5.29.1,7.76,7.76,0,0,0,2.29-.47c.77-.3,1.59-.68,2.37-1.06a59.56,59.56,0,0,0,9-5.54,34.48,34.48,0,0,0,7.36-7.14,11.43,11.43,0,0,0,2-4.13A6.88,6.88,0,0,0,791,415l-.09-1.26,0-.63-.1-.62a21.75,21.75,0,0,0-.48-2.43l-.32-1.18c-.12-.39-.28-.77-.41-1.15-.25-.77-.66-1.51-1-2.26s-.79-1.48-1.25-2.26a21.92,21.92,0,0,1-2.56-5.51,11.64,11.64,0,0,1,.37-6.77l.24-.77.31-.7.62-1.4c.44-.91.95-1.72,1.43-2.58.89-1.49,1.66-3,2.44-4.56a111.52,111.52,0,0,0,7.16-19.84,113.19,113.19,0,0,0,3.16-41.69A105.08,105.08,0,0,0,787.44,280a128.6,128.6,0,0,0-12-17.13c-1.11-1.35-2.32-2.62-3.47-3.93l-1.75-2c-.58-.65-1.23-1.25-1.84-1.87l-3.72-3.72c-1.25-1.21-2.56-2.32-3.83-3.48l-1.93-1.73-.47-.43a3.75,3.75,0,0,0-.42-.36l-.91-.62c-1.4-.94-2.88-1.86-4.35-2.77s-3-1.77-4.54-2.58l-2.3-1.24L743.6,237a136.39,136.39,0,0,0-19.43-7.81c-1.67-.5-3.33-1.06-5-1.5l-5.07-1.27c-1.7-.42-3.42-.68-5.12-1l-2.56-.5-2.59-.34c-1.72-.22-3.44-.48-5.17-.66l-5.19-.35c-.87-.05-1.73-.16-2.6-.15h-8l-5.37,0-2.6,0c-.87,0-1.73.1-2.6.14l-5.19.33c-1.72.18-3.44.44-5.16.65a118.77,118.77,0,0,0-20.34,4.62A135.71,135.71,0,0,0,622.2,237l-2.34,1.18-2.3,1.25c-1.54.81-3,1.72-4.52,2.59s-2.94,1.84-4.33,2.79l-.92.64a3.7,3.7,0,0,0-.41.35l-.48.43L605,247.94c-1.27,1.17-2.58,2.28-3.84,3.49l-3.72,3.72c-.61.62-1.26,1.22-1.84,1.87l-1.75,2c-1.15,1.31-2.36,2.58-3.47,3.93a127.32,127.32,0,0,0-12,17.13,107.45,107.45,0,0,0-8.48,19,100.52,100.52,0,0,0-4.58,20.32,113.19,113.19,0,0,0,3.16,41.69,111.43,111.43,0,0,0,7.16,19.83c.77,1.58,1.54,3.07,2.44,4.56.47.86,1,1.68,1.42,2.58l.63,1.4.31.7.24.78a11.64,11.64,0,0,1,.37,6.77,22.19,22.19,0,0,1-2.56,5.52c-.46.78-.85,1.51-1.25,2.26a22.29,22.29,0,0,0-1,2.25c-.14.39-.29.76-.42,1.15l-.31,1.19a17.7,17.7,0,0,0-.48,2.43l-.11.61,0,.63L574.8,415a6.55,6.55,0,0,0,.08,2.16,11.19,11.19,0,0,0,2,4.12,34.71,34.71,0,0,0,7.36,7.14,59.06,59.06,0,0,0,9,5.54c.78.38,1.6.76,2.37,1.06a7.39,7.39,0,0,0,2.28.47,49.88,49.88,0,0,0,5.29-.09,24,24,0,0,1,5.65.31,11.55,11.55,0,0,1,5.21,2.5,14.92,14.92,0,0,1,3.44,4.49,26.16,26.16,0,0,1,2,5.15,58.6,58.6,0,0,1,1.84,10.73,58.31,58.31,0,0,0-2.56-10.5,25,25,0,0,0-2.24-4.83,13.71,13.71,0,0,0-3.39-3.86,10,10,0,0,0-4.59-1.87,21.39,21.39,0,0,0-5.18,0,53.56,53.56,0,0,1-5.55.41,9.94,9.94,0,0,1-3-.46c-.94-.3-1.78-.64-2.65-1a58.92,58.92,0,0,1-9.77-5.33,37.66,37.66,0,0,1-8.51-7.55,17.87,17.87,0,0,1-1.69-2.52,12.25,12.25,0,0,1-1.21-3,10.63,10.63,0,0,1-.32-3.23l0-1.45,0-.73.09-.73a24,24,0,0,1,.43-2.91l.31-1.46c.13-.48.3-.95.44-1.42.28-1,.7-1.85,1.06-2.77s.83-1.75,1.26-2.55a19,19,0,0,0,1.87-4.35,6.36,6.36,0,0,0-.43-3.88l-.17-.52-.26-.53-.52-1.06c-.38-.7-.86-1.41-1.28-2.11-1-1.58-2-3.28-2.87-4.91a119.58,119.58,0,0,1-13-64.93,108.18,108.18,0,0,1,4.36-22.08,113,113,0,0,1,8.82-20.73,135.62,135.62,0,0,1,12.57-18.62c1.16-1.47,2.42-2.84,3.63-4.27l1.84-2.12c.61-.7,1.29-1.35,1.93-2l3.89-4c1.33-1.33,2.76-2.59,4.14-3.88l2.08-1.93.53-.48a5.48,5.48,0,0,1,.61-.53l.69-.51.6-.42c1.58-1.12,3.18-2.12,4.78-3.13s3.22-1.95,4.87-2.83l2.46-1.36,2.51-1.27a144.41,144.41,0,0,1,20.76-8.53,128.84,128.84,0,0,1,21.91-5.1c1.87-.24,3.73-.53,5.6-.73l5.64-.4c.94,0,1.88-.16,2.82-.16h8.31l5.45,0,2.83,0c.94,0,1.88.11,2.82.16l5.63.42c1.87.21,3.73.5,5.6.74l2.79.39,2.76.55c1.84.39,3.7.69,5.52,1.15l5.45,1.4c1.81.47,3.58,1.09,5.38,1.63a146.28,146.28,0,0,1,20.76,8.48l2.51,1.27,2.47,1.34c1.65.88,3.25,1.87,4.88,2.82s3.19,2,4.77,3.11l.6.43.71.51a4.66,4.66,0,0,1,.61.52l.53.49,2.09,1.92c1.37,1.3,2.81,2.56,4.14,3.88l3.89,4c.64.68,1.31,1.33,1.93,2l1.83,2.12c1.21,1.42,2.47,2.8,3.64,4.27a137.45,137.45,0,0,1,12.57,18.62,112.67,112.67,0,0,1,8.81,20.73,108.08,108.08,0,0,1,4.36,22.07,119.57,119.57,0,0,1-13,64.92c-.87,1.64-1.83,3.33-2.86,4.91-.42.71-.9,1.41-1.28,2.12l-.52,1.06-.27.53-.17.52a6.44,6.44,0,0,0-.43,3.88,19.24,19.24,0,0,0,1.87,4.35c.43.8.85,1.69,1.26,2.55a27.25,27.25,0,0,1,1.06,2.77c.15.48.31.95.44,1.43l.32,1.45a24,24,0,0,1,.43,2.91l.08.73,0,.73,0,1.45a10.63,10.63,0,0,1-.31,3.23,12.44,12.44,0,0,1-1.22,3,16.39,16.39,0,0,1-1.68,2.51,37.66,37.66,0,0,1-8.51,7.55,57.81,57.81,0,0,1-9.77,5.33c-.87.36-1.71.7-2.65,1a9.94,9.94,0,0,1-3,.46,48.2,48.2,0,0,1-5.54-.41,21.91,21.91,0,0,0-5.18,0,10.14,10.14,0,0,0-4.6,1.88,13.73,13.73,0,0,0-3.39,3.86,25.59,25.59,0,0,0-2.24,4.83A58.31,58.31,0,0,0,744.57,458.56Z" transform="translate(-335 -81.87)"/><path class="cls-2" d="M643.65,121.53a14,14,0,0,0-4.1-4.64,13,13,0,0,0-5.66-2.26,18.4,18.4,0,0,0-6.36.17,16.63,16.63,0,0,0-8.36,4.07,14.93,14.93,0,0,0-4.38,7.49,20.7,20.7,0,0,0-.17,9.11,18.16,18.16,0,0,0,3.42,7.67,12.62,12.62,0,0,0,6.73,4.49,18.68,18.68,0,0,0,14.67-2.09A14,14,0,0,0,644,141a15.52,15.52,0,0,0,2.19-6.27,21.8,21.8,0,0,0-.25-7.06A20.74,20.74,0,0,0,643.65,121.53Z" transform="translate(-335 -81.87)"/><polygon class="cls-2" points="492.87 89.4 503.51 97.03 508.36 81.03 502.76 84.1 492.87 89.4"/><path class="cls-2" d="M682,81.87c-157.74,0-286.93,122.14-298.19,277H467.1c11-109,103-194,214.9-194s203.87,85,214.89,194.13h83.3C968.93,204,839.73,81.87,682,81.87ZM454.89,314.43l-3.38,10.73-2,6.46-12.17-4.92-14.21-5.28-13-4.61-4.42-1.41q2.63-8,5.41-16.75l2-6.27,3-9.42,6.91,2.63-1.15,3c-.32.84-.72,2-1.22,3.49s-1,3-1.5,4.58q-1.62,5.08-2.07,6.57c-.31,1-.75,2.5-1.32,4.51L427.07,312c1-3,2-5.94,3-9q1-3.14,3.17-10.62,2.88,1.2,7,2.72-2.87,8.66-3.27,9.93-1.23,3.84-2.86,9.64l12,4.41,1.18-3.58q.5-1.56,2.22-7.18l2.12-7.11,1.28-4.8q3.68,1.53,7,2.73Q457.06,307.63,454.89,314.43Zm11.82-30.3c-.3.56-1.1,2.08-2.38,4.54l-6.83-4.4L442.14,275l-11.25-6.57c-1-.58-2.08-1.17-3.14-1.74-.78-.43-2-1.05-3.53-1.88q2.14-3.81,3.45-6.22c.7-1.28,1.63-3.07,2.81-5.39s2.14-4.14,2.87-5.49a25.71,25.71,0,0,1,3.91-5.77,11.19,11.19,0,0,1,4-2.51,10.59,10.59,0,0,1,4.68-.53,14.52,14.52,0,0,1,5.27,1.69,15.13,15.13,0,0,1,6,5.77,13.58,13.58,0,0,1,1.82,7.93,20.47,20.47,0,0,1-2.56,8.44,27.29,27.29,0,0,1-2.79,4.13q-3.48-1-6.67-1.68a20,20,0,0,0,2.39-3.47,12.86,12.86,0,0,0,1.59-4.72,6.88,6.88,0,0,0-.87-4.24,8,8,0,0,0-3.24-3.16,6.69,6.69,0,0,0-2.56-.8,4.57,4.57,0,0,0-2.39.39,5.57,5.57,0,0,0-1.88,1.42,17.46,17.46,0,0,0-1.83,2.83c-.6,1.12-1.2,2.26-1.77,3.42s-1.11,2.18-1.59,3.06q5.7,3.56,11,6.65l11.29,6.59q6,3.5,8.85,5l3.14,1.66ZM490.11,246c-.5.68-1.67,2.28-3.49,4.82q-9-7.68-18.57-15.45T453.2,223.66l-3-2.16,3.47-4.54,3.06-4.24q13.61,11.84,36.39,29.24Zm31.8-34.54q-2.11,2.49-3.76,4.12a33.23,33.23,0,0,1-8,5.89,24.2,24.2,0,0,1-9.16,2.71,17.75,17.75,0,0,1-9.13-1.5A28.41,28.41,0,0,1,478,208.11a21.88,21.88,0,0,1-1.63-9.85,24.65,24.65,0,0,1,2.86-9.8,35.56,35.56,0,0,1,6.5-8.74,63.94,63.94,0,0,1,9.47-7.63q2.22,2.08,3.18,2.91l2.75,2.42a59.1,59.1,0,0,0-5.55,3.54,32.18,32.18,0,0,0-3.73,3.18,22.2,22.2,0,0,0-4.2,5.73,15.86,15.86,0,0,0-1.72,6.71,16.42,16.42,0,0,0,1.31,6.95,19,19,0,0,0,4.07,6.05,17.91,17.91,0,0,0,6.82,4.45,13.31,13.31,0,0,0,7.92.18,18.37,18.37,0,0,0,8.17-5A45.72,45.72,0,0,0,521.49,199c1.52,2.25,3.13,4.48,4.81,6.69C524.78,207.86,523.32,209.77,521.91,211.42Zm72.78-46.5q-1.61.79-4.2,2.16c-.91-2.15-1.68-3.9-2.31-5.27l-8.52-18.47c-1.21-2.61-2.44-5.15-3.67-7.64l-1.26-2.47,3.52,35.38.49,4.29c-2,.95-3.38,1.6-4.12,2-.92.46-2.36,1.19-4.31,2.21l-14.62-16.25c-.52-.58-1.64-1.78-3.38-3.59l-5-5.3c-.48-.5-.85-.92-1.13-1.25l-1.85-2.23,1.54,4.12q.78,1.93,2.64,6.47l8.22,19.58q.63,1.44,2,4.21l-4,1.9q-1,.49-4,2l-2.63-7.32-10-25.32-4.53-10.91c2.93-1.41,5.07-2.44,6.42-3.11,1.08-.54,3-1.53,5.87-3,1.15,1.49,2,2.54,2.48,3.16s1.38,1.56,2.61,2.86,2.76,2.86,4.58,4.68q4.08,4.16,7.77,8.35l6.68,7.6-1.48-13.27L567.2,133c0-.59-.12-1.26-.22-2s-.31-2.08-.62-4q3.67-1.75,6.52-3.16,1.9-.94,6-3.07,3.95,9,9,19.81t7.69,16q1.26,2.55,3.22,6.34C596.81,163.89,595.42,164.56,594.69,164.92Zm61.62-29.4a21.32,21.32,0,0,1-3.69,9.17,22.69,22.69,0,0,1-7.74,6.77,35.93,35.93,0,0,1-10.48,3.79,35.55,35.55,0,0,1-10.61.53,22.55,22.55,0,0,1-9.46-3,18.88,18.88,0,0,1-6.57-6.38,26.39,26.39,0,0,1-3.34-8.73,28.05,28.05,0,0,1-.09-10.57,20.47,20.47,0,0,1,4.07-9.17,26.07,26.07,0,0,1,7.8-6.56,34.83,34.83,0,0,1,10.45-3.78,33.9,33.9,0,0,1,9.86-.53,22.21,22.21,0,0,1,9,2.86,20.83,20.83,0,0,1,6.8,6.17,24.27,24.27,0,0,1,3.72,9.26A29.5,29.5,0,0,1,656.31,135.52ZM715.57,121l-1.28,13a35.11,35.11,0,0,1-1.27,6.79,14.09,14.09,0,0,1-1.69,3.41,12,12,0,0,1-2.41,2.46,17,17,0,0,1-4.11,2.34,23,23,0,0,1-5.51,1.5,44.38,44.38,0,0,1-8.19.38,39.82,39.82,0,0,1-8-1.16,22.17,22.17,0,0,1-5.8-2.38,15,15,0,0,1-4.1-3.41,10.56,10.56,0,0,1-1.85-3.67,15.68,15.68,0,0,1-.61-5.37q0-1,.18-2.64c.1-1.08.24-2.47.44-4.17l.53-4.8q.27-2.25.68-6.61l.68-7.39c.18-2,.37-4.26.55-6.72,2.63.17,4.42.27,5.35.31,1.16.06,2.88.11,5.18.17l-2.86,27.48q-.06.48-.09,1a14.53,14.53,0,0,0,1,7,7.76,7.76,0,0,0,3.71,3.55,14.93,14.93,0,0,0,5.77,1.33,16.32,16.32,0,0,0,4-.3,11.84,11.84,0,0,0,2.85-1,8.91,8.91,0,0,0,1.88-1.35,9,9,0,0,0,1.64-2.22,10.48,10.48,0,0,0,1.08-2.82,82.07,82.07,0,0,0,1.21-8.4l1.27-11.85q.48-5.17.9-11.42,3.84.24,5.72.33l5,.16Zm45.25,2.11a27.59,27.59,0,0,0-9-4.34,9.19,9.19,0,0,0-5.68.16,4.32,4.32,0,0,0-2.92,2.92,4.71,4.71,0,0,0-.13,1.15,5.32,5.32,0,0,0,.15,1.24,9.75,9.75,0,0,0,.68,1.68,18.06,18.06,0,0,0,1.66,2.59c.75,1,1.41,1.86,2,2.51l3.17,4.73q1.25,1.68,2.16,3.21a24.65,24.65,0,0,1,1.52,2.87,13.2,13.2,0,0,1,.85,2.5,10.22,10.22,0,0,1-.09,4.62,11.5,11.5,0,0,1-2.6,4.94,11.05,11.05,0,0,1-4.72,3.15,15.82,15.82,0,0,1-5.85.89,29.79,29.79,0,0,1-6.26-.89,40.33,40.33,0,0,1-4.85-1.59c-1.82-.71-4.19-1.78-7.09-3.23.65-3.4,1.1-6.21,1.34-8.4a29.65,29.65,0,0,0,11.08,5.87,12.42,12.42,0,0,0,4.12.34,5.81,5.81,0,0,0,3.18-1.16,4.4,4.4,0,0,0,1.53-2.42,4.83,4.83,0,0,0,.07-2.13,9.47,9.47,0,0,0-1.48-3.07q-1.44-2.29-5.28-7.68-1.83-2.59-2.49-3.68a24.07,24.07,0,0,1-2.22-4.16,10.53,10.53,0,0,1-.46-6.68,11.09,11.09,0,0,1,3.19-5.42,11.84,11.84,0,0,1,6.27-3,22.31,22.31,0,0,1,9.12.62,57.87,57.87,0,0,1,10.4,3.8Q761.42,118.51,760.82,123.07Zm23.87,40.3L783,167c-.69,1.51-1.4,3.08-2.12,4.73l-4.74-2.16L771,167.41l4.71-8.83,6.69-13.3,6.34-13.2-2.19-1-2-.86-1.95-.83-7.31-3q2.24-4.39,3.3-6.72,9,4,18.82,8.37L808.62,133l6,2.61q-2.28,4.32-3.34,6.71-5.53-2.78-10.73-5.06l-2.4-1.06-2.89,5.55ZM840.77,205l-1,3.92-4.13-3q-1.44-1-4.89-3.43c.73-2,1.63-4.69,2.67-8.17s1.87-6.33,2.45-8.55l-14.62-10.48q-8,4.29-16,8.94l-4.49-3.3q-1.28-.91-4.85-3.39,6.55-3,15.84-7.78L829.14,161q8.07-4,13.73-7.19,3.57,2.64,5.07,3.72,2.64,1.89,5.21,3.64L849,175.33Zm23.62,31.92q-2.39-2.24-3.93-4a33,33,0,0,1-5.49-8.23,24.22,24.22,0,0,1-2.27-9.28,17.76,17.76,0,0,1,1.95-9.05,28.37,28.37,0,0,1,15.18-13.23,21.93,21.93,0,0,1,9.92-1.14,24.5,24.5,0,0,1,9.65,3.33,35.92,35.92,0,0,1,8.42,6.91,64.36,64.36,0,0,1,7.16,9.84q-2.19,2.12-3.06,3l-2.56,2.63a60.59,60.59,0,0,0-3.26-5.71,34.42,34.42,0,0,0-3-3.88,22.49,22.49,0,0,0-5.53-4.48,16,16,0,0,0-6.61-2.05,16.47,16.47,0,0,0-7,1,19.14,19.14,0,0,0-6.25,3.77,18,18,0,0,0-4.77,6.6,13.23,13.23,0,0,0-.56,7.9,18.37,18.37,0,0,0,4.63,8.41,46.19,46.19,0,0,0,9.79,7.79c-2.32,1.41-4.62,2.9-6.92,4.48C867.81,240,866,238.42,864.39,236.94Zm31.55,47.89c-.33-.58-1.28-2.21-2.86-4.91q8.86-4,18.27-9l-11.48-20.33-11.18,5.77-6.83,3.7-2.7-4.92q-.45-.81-2.63-4.53l11.07-5.34q9.07-4.37,16.7-8.35t10.57-5.65l3.25-1.88c1.28,2.36,2.2,4,2.74,5,.42.73,1.28,2.22,2.6,4.45l-13.87,6.8-3.15,1.65,11.45,20.26,8.25-4.18c2.81-1.47,4.65-2.46,5.53-3l3-1.7,2.75,5,2.58,4.44-16.77,8.17L911,282.69l-7.12,3.87-5.36,2.95Zm54.19,35.48c-.22-.86-.55-2.05-1-3.56s-.9-3.05-1.38-4.62c-1-3.39-1.73-5.59-2-6.57s-.82-2.48-1.5-4.46l-11.76,3c.85,3,1.74,6,2.68,9.05q1,3.13,3.45,10.53-3.06.66-7.27,1.73-2.58-8.74-3-10-1.19-3.85-3.15-9.54l-12.38,3.22,1.07,3.6q.48,1.57,2.28,7.17l2.31,7.05,1.68,4.67c-2.59.56-5,1.14-7.29,1.74q-2.55-8.5-4.65-15.34l-3.33-10.74-2-6.46,12.81-2.9,14.68-3.76,13.3-3.62,4.44-1.37q2.42,8.1,5.11,16.85l2,6.26,2.93,9.44-7.17,1.77Z" transform="translate(-335 -81.87)"/><path class="cls-2" d="M712.32,647.1a60.08,60.08,0,0,0-4.57,4,14.43,14.43,0,0,0-2.52,3.32,9.29,9.29,0,0,0-1.12,3.13,10.24,10.24,0,0,0,0,2.82,8.65,8.65,0,0,0,2.36,4.86,10.39,10.39,0,0,0,5.1,2.84,18,18,0,0,0,6.95.25,20.69,20.69,0,0,0,4.22-1.05,16.46,16.46,0,0,0,3.44-1.69,11,11,0,0,0,2.22-1.86,26.58,26.58,0,0,0,1.81-2.39q-5.49-3.92-9.54-7.15T712.32,647.1Z" transform="translate(-335 -81.87)"/><polygon class="cls-2" points="114.01 421.15 121.25 434.7 134.21 420.58 114.01 421.15"/><path class="cls-2" d="M896.91,410.87c-11.94,108-103.48,192-214.66,192s-202.73-84-214.67-192H384.21c12.22,153.91,141,275,298,275s285.81-121.09,298-275Zm-483,71.72q-.14-.49-1.05-3.36,10.49-2.14,21.05-5l-7.77-26.64-13.59,3.46-7.32,2-.9-3.34c-.09-.31-.42-1.35-1-3.13l20.1-4.69L438.65,438l5.21-1.41c.75-.2,2.33-.64,4.74-1.35l.94,3.36.94,3.11-19.93,4.78,7.77,26.64,15.76-3.95c.55-.14,1.91-.52,4.08-1.16l.94,3.36.94,3.11q-13.25,2.94-23.7,5.58t-21.59,5.75Zm26.66,55.54c-.29-.54-.89-1.61-1.79-3.19q2.46-2.37,6.95-7.18t7.19-7.92l-8.8-16.48-11.34.45-10.32.56-1.59-3.12q-.4-.76-1.8-3.21l13.3-.06,34.82-.62,4.31-.2,1.84,3.51c.58,1.09,1.22,2.26,1.91,3.52l-12,13.1L442,541Zm11.68,16.09c-.24-.33-1-1.29-2.19-2.89l6.65-4.22L470.31,538l13.31-9.13q1.15-.79,2.28-1.62l2.8-2.09,2.05,2.87,2,2.66q-7.26,4.54-15,9.78-12.34,8.34-23.73,16.36Zm47.7,18.86a16.22,16.22,0,0,1-3.71-1.91q-1.32-.92-3.41-2.7l-2.9,10.95-2.71,11.06c-.18.77-.48,1.91-.88,3.41-1.18-1.32-2-2.2-2.37-2.63s-1.28-1.33-2.54-2.61l1.73-5c.32-1,.64-2,.94-2.95s.63-2,1-3.16l3.91-14.27c.15-.58.43-1.56.84-2.95a27.62,27.62,0,0,0,2.83,3.72,16.42,16.42,0,0,0,5.07,3.75,9,9,0,0,0,5.5.75,9.65,9.65,0,0,0,4.89-2.5,8.67,8.67,0,0,0,1.81-2.35,5.57,5.57,0,0,0,.62-2.67,7.35,7.35,0,0,0-.43-2.4,10.88,10.88,0,0,0-1.33-2.32,27.36,27.36,0,0,0-2.15-2.6l-3.37-3.49c-1.44-1.53-2.34-2.51-2.71-2.94Q483,562.2,468.8,575.21l-2.25-2.49q-.51-.56-2.31-2.37l7.17-5.79,12.93-11L495,544q3.21-2.93,4.56-4.18,2.76,3,4.6,5,1.59,1.7,3.57,3.71t3.22,3.33a35.58,35.58,0,0,1,3.64,4.53,10.53,10.53,0,0,1,1.71,4.81,9.87,9.87,0,0,1-.61,4.74,11.18,11.18,0,0,1-2.81,4,14.42,14.42,0,0,1-4,2.68,12.67,12.67,0,0,1-4.44,1.07A12.33,12.33,0,0,1,499.91,573.08Zm36.53,8.17a17.58,17.58,0,0,0-7.66-.79,18.07,18.07,0,0,0-7.55,2.73,23.07,23.07,0,0,0-6.2,5.71,23.5,23.5,0,0,0-3.59,6.79,15.32,15.32,0,0,0-.67,7.09,17,17,0,0,0,2.49,6.62,21.49,21.49,0,0,0,5.41,5.71,43.59,43.59,0,0,0,11.29,5.8q-1.87,1.7-3.91,3.78a61.72,61.72,0,0,1-10.68-6.33,30.71,30.71,0,0,1-6.79-7,21.63,21.63,0,0,1-3.64-8.61,19,19,0,0,1,.5-9,26.86,26.86,0,0,1,4.29-8.33,30.12,30.12,0,0,1,7.5-7.06,21.3,21.3,0,0,1,9.2-3.45,22.53,22.53,0,0,1,9.89,1.07,32.3,32.3,0,0,1,9.39,4.94,57,57,0,0,1,8.63,8q-1,1.39-2.88,4.46a46.31,46.31,0,0,0-4.23-5.13,34.89,34.89,0,0,0-3.81-3.36A24.13,24.13,0,0,0,536.44,581.25Zm54.09,43.44-6.35,11.74a40.5,40.5,0,0,1-4,6.06,13.48,13.48,0,0,1-2.84,2.43,11.32,11.32,0,0,1-3.08,1.35,15.92,15.92,0,0,1-4.41.57,22.72,22.72,0,0,1-5.15-.66,40.88,40.88,0,0,1-7.27-2.71,32.11,32.11,0,0,1-6.21-3.87,19.73,19.73,0,0,1-4-4.23,13.77,13.77,0,0,1-2.15-4.57,10.28,10.28,0,0,1-.18-4.11,17.2,17.2,0,0,1,1.62-5.25c.92-1.91,2.05-4.05,3.39-6.44s3.33-6,6-10.87,4.58-8.59,5.85-11.22l3,1.51,3,1.41L555,618.65l-1.47,2.82-.29.58a16,16,0,0,0-1.94,7.24,9.42,9.42,0,0,0,2.26,5.59,18.28,18.28,0,0,0,6.35,4.66,19.7,19.7,0,0,0,5.59,1.78,12.13,12.13,0,0,0,4.23-.08,10.31,10.31,0,0,0,3.61-1.52,12.23,12.23,0,0,0,2.88-2.83,88.4,88.4,0,0,0,4.8-8l5.34-9.65q2.88-5.36,6-11.53l3.16,1.56,2.88,1.35Zm31.28-3-4.69,14.4-6.32,20.36-1.51,5.5-3.15-.93c-.29-.08-1.41-.37-3.38-.86l3.42-9.91,6.62-20.65,2.94-9.58q-8.09-2.17-14.21-3.57c.61-1.73,1.11-3.25,1.5-4.59q8.36,2.32,18.05,5l10.56,2.86,5.6,1.54q-1,2.85-1.5,4.58-5-1.7-11.23-3.39Zm42.88,8.36a28.72,28.72,0,0,0-9.21-3,11.09,11.09,0,0,0-5,.38,7.49,7.49,0,0,0-3.29,2.1,5.5,5.5,0,0,0-1.39,3,6.58,6.58,0,0,0,.05,1.88,6.67,6.67,0,0,0,.61,1.81,17.66,17.66,0,0,0,1.65,2.63q1,1.33,2.84,3.32l3.5,3.65c2,2.13,3.49,3.76,4.4,4.9a21.39,21.39,0,0,1,2.12,3.13,11.06,11.06,0,0,1,1.09,3,10,10,0,0,1,.11,3.34,10.72,10.72,0,0,1-1.77,4.86,9.81,9.81,0,0,1-3.81,3.35,14.45,14.45,0,0,1-5.12,1.48,24.51,24.51,0,0,1-5.67-.06,34.29,34.29,0,0,1-4.79-.94,61.38,61.38,0,0,1-6.92-2.46c.17-2.16.25-4,.23-5.65a35,35,0,0,0,6.18,3.17,23.69,23.69,0,0,0,5.43,1.35,12.77,12.77,0,0,0,4.84-.29,7.13,7.13,0,0,0,3.58-2,6.13,6.13,0,0,0,1.54-3.48,6.59,6.59,0,0,0-.1-2.27,7.93,7.93,0,0,0-1-2.25,24.09,24.09,0,0,0-2.53-3.23q-1.84-2.07-5.22-5.71l-2.26-2.43c-.85-.93-1.61-1.84-2.29-2.74a20.8,20.8,0,0,1-1.65-2.54,13.71,13.71,0,0,1-1-2.15,9.23,9.23,0,0,1-.42-2.08,10.24,10.24,0,0,1,0-2.28,10.14,10.14,0,0,1,2.25-5.28,11.12,11.12,0,0,1,5.29-3.49,20,20,0,0,1,8.65-.51,52.42,52.42,0,0,1,9.14,2.13C664.73,626.1,664.67,627.91,664.69,630.06Zm79.89,38.56c-1.16.17-2.47.38-3.93.64l-6.36-4.46c-.79.9-1.48,1.64-2.06,2.23a23.07,23.07,0,0,1-2.24,1.89,19.17,19.17,0,0,1-3,1.86,26.52,26.52,0,0,1-3.93,1.51,32.78,32.78,0,0,1-4.63,1,25.45,25.45,0,0,1-10-.39,14.25,14.25,0,0,1-7.29-4.25,13.52,13.52,0,0,1-3.34-7.22,14.5,14.5,0,0,1,0-4.16,13,13,0,0,1,1.55-4.37,20.18,20.18,0,0,1,3.4-4.41,61.85,61.85,0,0,1,6.07-5.16,33.28,33.28,0,0,1-4.75-6.17,14.86,14.86,0,0,1-1.73-4.94,11.18,11.18,0,0,1,.4-4.8,11.87,11.87,0,0,1,2.57-4.52,12.69,12.69,0,0,1,4.46-3.2,21.11,21.11,0,0,1,5.6-1.57,26.75,26.75,0,0,1,4.28-.24,39.66,39.66,0,0,1,5.47.59q.55,3.84.87,5.51a19.64,19.64,0,0,0-4.48-1.27,14,14,0,0,0-3.83,0,12.24,12.24,0,0,0-4.88,1.74,7.75,7.75,0,0,0-3,3.49,7.93,7.93,0,0,0-.6,4.32,10.22,10.22,0,0,0,.86,2.87,17.35,17.35,0,0,0,2.24,3.43,55,55,0,0,0,6.3,6.53q3.39,3.07,7.42,6.09,1.54,1.2,7.62,5.59c.3-1,.49-1.75.59-2.27s.16-1.27.22-2.24a27.73,27.73,0,0,0,0-2.88c0-1-.1-2-.21-3.15,1.3-.13,2.32-.25,3-.35s1.73-.27,2.94-.5a31.86,31.86,0,0,1,.09,7.92,28.24,28.24,0,0,1-1.89,7.4c1.71,1.29,3.46,2.55,5.26,3.8s3.48,2.43,5.06,3.58C746.9,668.32,745.51,668.49,744.58,668.62Zm58.95-30.57a9.92,9.92,0,0,1-1.61,4.81,14.61,14.61,0,0,1-3.67,3.86,24.92,24.92,0,0,1-4.93,2.8,34.21,34.21,0,0,1-4.61,1.61,62.07,62.07,0,0,1-7.22,1.35c-.94-2-1.83-3.61-2.65-5a34.89,34.89,0,0,0,6.93-.38,24,24,0,0,0,5.38-1.56,12.84,12.84,0,0,0,4-2.7,7,7,0,0,0,2.06-3.57,6.2,6.2,0,0,0-.42-3.78,6.49,6.49,0,0,0-1.24-1.91,7.58,7.58,0,0,0-2-1.46,24,24,0,0,0-3.82-1.51c-1.75-.58-4.21-1.34-7.39-2.3l-3.17-1c-1.21-.38-2.33-.78-3.36-1.21a22,22,0,0,1-2.71-1.36,13.79,13.79,0,0,1-1.91-1.37,8.83,8.83,0,0,1-1.42-1.59,10.74,10.74,0,0,1-1.12-2,10.11,10.11,0,0,1-.71-5.69,11.12,11.12,0,0,1,2.81-5.68,19.91,19.91,0,0,1,7.21-4.8,52.26,52.26,0,0,1,9-2.77q.94,2,2.59,4.77a28.79,28.79,0,0,0-9.46,2.08,11.36,11.36,0,0,0-4.13,2.84,7.6,7.6,0,0,0-1.77,3.48,5.48,5.48,0,0,0,.29,3.26,6.39,6.39,0,0,0,2.43,2.86,18.09,18.09,0,0,0,2.75,1.44c1,.43,2.41.91,4.12,1.43l4.87,1.4q4.23,1.21,6.27,2a22.35,22.35,0,0,1,3.41,1.63,11.12,11.12,0,0,1,2.44,2,10.29,10.29,0,0,1,1.79,2.82A11,11,0,0,1,803.53,638.05Zm48.79-22.9c-.28.18-1.25.85-2.9,2q-5.14-9.37-11-18.61l-23.13,15.32,7.34,11.95,4.08,6.4-2.92,1.85-2.7,1.87-10.44-17.8-8.23-13.41-2.9-4.56q-.62-1-2.69-4.12l2.93-1.9,2.69-1.82,10.48,17.61L836,594.61l-8.45-13.88c-.3-.48-1.07-1.67-2.32-3.55l2.93-1.9,2.69-1.82q6.74,11.77,12.37,21t11.89,18.91Zm45.18-41.86c-.43.43-1.27,1.32-2.52,2.64q-3-1.65-8.9-4.51t-9.7-4.54l-13.14,13.26L867,590.85l3.58,9.7L868.07,603c-.4.41-1.25,1.29-2.54,2.66l-4-12.69L850.7,559.87l-1.47-4,2.82-2.8c.87-.87,1.8-1.83,2.79-2.86l16.06,7.59L899.84,571Zm20.59-28.08c-.52.78-1.24,1.9-2.15,3.37l-6-1.74-42-10.31c.89-1.3,1.56-2.28,2-3l1.74-2.69,3.66,1.15q1.2.35,2.43.66l36.36,9.48L894.25,508.1c-.46-.77-.92-1.53-1.41-2.31s-1.23-1.92-2.24-3.46c.93-1.36,1.59-2.34,2-2.95l1.84-2.84Q897.5,502.42,903,512l9.6,17q4.14,7.37,7.69,13.08Q918.86,544,918.09,545.21Zm25.49-47.13-6.34,15-11.48-5.85-21.7-10.35-4.77-2.16c-1.2-.54-2.59-1.15-4.16-1.82q3.07-7.08,6.26-14.53l4.26-10,1.38-3.2q2.09,1.15,4.27,2.17L910,470c-.34.67-.88,1.85-1.63,3.52s-1.47,3.35-2.17,5Q903,486,901.81,488.92l14.46,6.87q2.16-4.8,3.81-8.63,1.78-4.19,4.57-11c1.41.78,2.81,1.49,4.22,2.15l-4.73,10.77q-1.36,3.17-3.66,8.88l15.28,7.22,1.43-3.25q3.81-8.89,5-11.83t2.64-6.93c1.49.81,2.92,1.54,4.31,2.18Q945.82,492.87,943.58,498.08Zm12.35-33.5a63.72,63.72,0,0,1-3.35,6.54q-3.18-.67-5.57-1a35.06,35.06,0,0,0,4-5.71,23.55,23.55,0,0,0,2-5.21,12.67,12.67,0,0,0,.34-4.83,7.12,7.12,0,0,0-1.56-3.83,6.13,6.13,0,0,0-3.25-2,6.51,6.51,0,0,0-2.26-.2,7.92,7.92,0,0,0-2.36.65,25.51,25.51,0,0,0-3.53,2.1q-2.29,1.55-6.34,4.43l-2.72,1.91a33.83,33.83,0,0,1-3,1.91,19.64,19.64,0,0,1-2.73,1.31,13.52,13.52,0,0,1-2.26.68,9.61,9.61,0,0,1-2.12.14,11,11,0,0,1-2.26-.33,10.17,10.17,0,0,1-4.93-2.92,11.17,11.17,0,0,1-2.77-5.7,20.05,20.05,0,0,1,.62-8.64,53,53,0,0,1,3.31-8.79c1.43.32,3.22.61,5.35.88a28.52,28.52,0,0,0-4.14,8.74,11.24,11.24,0,0,0-.29,5,7.59,7.59,0,0,0,1.66,3.53,5.57,5.57,0,0,0,2.76,1.77,6.57,6.57,0,0,0,1.87.19,6.2,6.2,0,0,0,1.88-.36,17.33,17.33,0,0,0,2.82-1.29c1-.55,2.19-1.35,3.66-2.38.35-.27,1.71-1.26,4.08-3s4.19-3,5.44-3.72a21.21,21.21,0,0,1,3.38-1.69,11,11,0,0,1,3.1-.69,10.32,10.32,0,0,1,3.32.32,10.86,10.86,0,0,1,4.59,2.39,9.84,9.84,0,0,1,2.82,4.22,14.48,14.48,0,0,1,.81,5.27,25.08,25.08,0,0,1-.81,5.61A33.56,33.56,0,0,1,955.93,464.58Z" transform="translate(-335 -81.87)"/><polygon class="cls-2" points="526.45 493.67 537.26 482.76 519.95 474.54 526.45 493.67"/><path class="cls-2" d="M874.56,358.79c-14.61,0-26.56,11.72-26.56,26h0c0,14.32,12,26,26.56,26h47.21L876,358.79Z" transform="translate(-335 -81.87)"/><path class="cls-2" d="M1029,384.83h0c0-14.32-12-26-26.56-26H976.36l24.34,23.87v20.25l-45-44.12H932.1l53.11,52.08h17.23C1017.05,410.87,1029,399.15,1029,384.83Z" transform="translate(-335 -81.87)"/><polygon class="cls-2" points="554.31 276.92 607.42 329 629.55 329 576.44 276.92 554.31 276.92"/><rect x="958.91" y="374.03" width="62.93" height="20.86" rx="5.13" transform="translate(1039.84 -687.77) rotate(90)"/><rect x="854.89" y="374.76" width="62.93" height="20.86" rx="5.13" transform="translate(936.55 -583.04) rotate(90)"/><path class="cls-2" d="M361.56,358.79c-14.61,0-26.56,11.72-26.56,26h0c0,14.32,11.95,26,26.56,26h47.21L363,358.79Z" transform="translate(-335 -81.87)"/><path class="cls-2" d="M516,384.83h0c0-14.32-11.95-26-26.56-26H463.36l24.34,23.87v20.25l-45-44.12H419.1l53.11,52.08h17.23C504.05,410.87,516,399.15,516,384.83Z" transform="translate(-335 -81.87)"/><polygon class="cls-2" points="41.31 276.92 94.42 329 116.56 329 63.44 276.92 41.31 276.92"/><rect x="445.91" y="374.03" width="62.93" height="20.86" rx="5.13" transform="translate(526.84 -174.77) rotate(90)"/><rect x="341.89" y="374.76" width="62.93" height="20.86" rx="5.13" transform="translate(423.55 -70.04) rotate(90)"/></svg>