<svg id="Layer_1" data-name="Layer 1" xmlns="http://www.w3.org/2000/svg" viewBox="0 0 173.5 61.79"><defs><style>.cls-1{fill:#f7931e;}</style></defs><title>symbol</title><path class="cls-1" d="M263.17,362.91a25.53,25.53,0,0,0-25.58,25.33h0a25.55,25.55,0,0,0,25.34,25.58l45.25.22-43.59-51.12Z" transform="translate(-237.59 -357.76)"/><path class="cls-1" d="M411.09,389.08h0a25.53,25.53,0,0,0-25.33-25.58l-25-.12L384,386.82l-.09,19.8L341,363.28l-22.62-.11L369,414.33l16.52.08A25.53,25.53,0,0,0,411.09,389.08Z" transform="translate(-237.59 -357.76)"/><polygon class="cls-1" points="39.72 5.21 90.39 56.37 111.6 56.47 60.93 5.32 39.72 5.21"/><rect x="343.31" y="378.54" width="61.52" height="20" rx="5.13" transform="translate(526.81 -341.41) rotate(90.28)"/><rect x="243.6" y="378.77" width="61.52" height="20" rx="5.13" transform="translate(426.85 -241.48) rotate(90.28)"/></svg>